<?xml version="1.0" encoding="utf-8"?>
<!-- Generator: Adobe Illustrator 19.2.1, SVG Export Plug-In . SVG Version: 6.00 Build 0)  -->
<svg version="1.1" xmlns="http://www.w3.org/2000/svg" xmlns:xlink="http://www.w3.org/1999/xlink" x="0px" y="0px"
	 viewBox="0 0 320 240" style="enable-background:new 0 0 320 240;" xml:space="preserve">
<style type="text/css">
	.st0{fill:#515251;}
	.st1{fill:#E4B62F;stroke:#787878;stroke-width:4;stroke-miterlimit:10;}
	.st2{fill:#509CA3;}
	.st3{fill:#FFFFFF;}
	.st4{font-family:'Noteworthy-Bold';}
	.st5{font-size:19.9409px;}
</style>
<g id="Layer_1">
	<rect y="0" class="st0" width="320" height="240"/>
</g>
<g id="Layer_2">
	<circle class="st1" cx="77.4" cy="122.5" r="48.4"/>
</g>
<g id="Layer_3">
	<g>
		<path class="st2" d="M52.3,148.2V99.5h29.3l7.9,7.7l-0.4,0.5l0.4-0.5l0.2,0.2v40.7H52.3z M53.6,146.9h34.9V108l-7.4-7.2H53.6
			V146.9z"/>
		<rect x="59.4" y="111.2" class="st2" width="23.2" height="1.3"/>
		<rect x="59.4" y="117.8" class="st2" width="23.2" height="1.3"/>
		<rect x="59.4" y="124.5" class="st2" width="23.2" height="1.3"/>
		<rect x="59.4" y="131.2" class="st2" width="23.2" height="1.3"/>
		<rect x="59.4" y="137.8" class="st2" width="23.2" height="1.3"/>
		<polygon class="st2" points="80.7,108.6 80.7,100.2 82,100.2 82,107.3 89.1,107.3 89.1,108.6 		"/>
	</g>
	<g>
		<path class="st2" d="M101.3,102.4c-1.7-1.1-4-0.6-5.1,1.1L77,133.1l-9.4-12.4h-9.2l0.2,0.4l15.7,20.6c0.7,0.9,1.8,1.5,2.9,1.5
			l0.1,0c1.2,0,2.3-0.7,3-1.7l22-34C103.5,105.8,103,103.5,101.3,102.4z"/>
	</g>
</g>
<g id="Layer_4">
	<text transform="matrix(1 0 0 1 141.6673 117.8348)"><tspan x="0" y="0" class="st3 st4 st5">Cara &amp; </tspan><tspan x="0" y="23.9" class="st3 st4 st5">Ketentuan Upload</tspan></text>
</g>
</svg>
