<?xml version="1.0" encoding="utf-8"?>
<!-- Generator: Adobe Illustrator 19.2.1, SVG Export Plug-In . SVG Version: 6.00 Build 0)  -->
<svg version="1.1" xmlns="http://www.w3.org/2000/svg" xmlns:xlink="http://www.w3.org/1999/xlink" x="0px" y="0px"
	 viewBox="0 0 320 240" style="enable-background:new 0 0 320 240;" xml:space="preserve">
<style type="text/css">
	.st0{fill:#515251;}
	.st1{fill:#E4B62F;stroke:#787878;stroke-width:4;stroke-miterlimit:10;}
	.st2{fill:#509CA3;}
	.st3{fill:#FFFFFF;}
	.st4{font-family:'Noteworthy-Bold';}
	.st5{font-size:19.9409px;}
</style>
<g id="Layer_1">
	<rect y="0" class="st0" width="320" height="240"/>
</g>
<g id="Layer_2">
	<circle class="st1" cx="77.4" cy="122.5" r="48.4"/>
</g>
<g id="Layer_3">
	<g>
		<path class="st2" d="M104.2,143.7l-3.4-12.1c-0.5-1.8-2.4-3.2-4.3-3.2H58.1c-1.8,0-3.8,1.5-4.2,3.2l-3.3,12
			c-0.5,1.8,0.6,3.2,2.5,3.2h48.6C103.6,146.9,104.7,145.5,104.2,143.7z M97.5,144.8H57.9c-1.6,0-2.7-1.1-2.7-2.5
			c0-0.3,0-0.6,0.1-0.9l2.3-7.7c0.6-1.8,2.5-3.3,4.5-3.3H93c1.9,0,3.9,1.5,4.5,3.3l2.4,7.7c0.1,0.3,0.2,0.7,0.2,1
			C100.1,143.8,99,144.8,97.5,144.8z"/>
		<path class="st2" d="M93,130.7H62.1c-1.8,0-3.7,1.4-4.2,3.1l-2.3,7.7l-0.1,0.8c0,1.3,0.9,2.2,2.4,2.2h39.5c1.4,0,2.3-0.9,2.3-2.1
			c0-0.3,0-0.6-0.1-0.9l-2.4-7.7C96.7,132.1,94.8,130.7,93,130.7z M81.1,142.6h-7.4c-0.7,0-1.2-0.5-1.2-1.1l0.1-0.4l0.2-0.8
			c0.2-0.8,1-1.4,1.9-1.4h5.5c0.8,0,1.6,0.6,1.9,1.4l0.2,0.8l-0.2,0l0.2,0l0.1,0.4C82.3,142.1,81.8,142.6,81.1,142.6z"/>
		<path class="st2" d="M99.8,141.4L99.8,141.4c0.6,1.8-0.5,3.2-2.4,3.2H57.9c-1.8,0-2.9-1.4-2.4-3.2l2.3-7.7
			c0.5-1.8,2.5-3.2,4.3-3.2H93c1.8,0,3.8,1.4,4.4,3.2L99.8,141.4l0.2-0.1l-2.4-7.7c-0.6-1.8-2.6-3.3-4.5-3.3H62.1
			c-1.9,0-3.9,1.5-4.5,3.3l-2.3,7.7c-0.1,0.3-0.1,0.6-0.1,0.9c0,1.4,1.1,2.5,2.7,2.5h39.5c1.6,0,2.7-1,2.7-2.5c0-0.3-0.1-0.6-0.2-1
			L99.8,141.4z"/>
		<path class="st2" d="M80.1,139.2h-5.5h0c-0.6,0-1.4,0.5-1.5,1.2l-0.2,0.8l0,0.3c0,0.5,0.3,0.8,0.9,0.8h7.4c0.5,0,0.8-0.3,0.9-0.8
			l0-0.3h0l-0.2-0.8C81.5,139.8,80.8,139.2,80.1,139.2z"/>
		<path class="st2" d="M82.1,141.1c0.2,0.7-0.2,1.3-1,1.3h-7.4c-0.7,0-1.2-0.6-1-1.3l0.2-0.8c0.2-0.7,1-1.3,1.7-1.3h5.5
			c0.7,0,1.5,0.6,1.7,1.3L82.1,141.1l0.2,0l-0.2-0.8c-0.2-0.8-1-1.4-1.9-1.4h-5.5c-0.8,0-1.6,0.6-1.9,1.4l-0.2,0.8l-0.1,0.4
			c0,0.6,0.5,1.1,1.2,1.1h7.4c0.7,0,1.2-0.5,1.2-1.1l-0.1-0.4L82.1,141.1z"/>
		<path class="st2" d="M54.9,98.1v29.5h45V98.1H54.9z M95.9,124.2h-37v-22.3h37V124.2z"/>
	</g>
	<g>
		<path class="st2" d="M69.7,125.1l-0.1-0.1l0-0.1c-0.1-0.4-0.1-0.9-0.1-1.3c0-2.3,1-4.4,2.6-5.7c-0.8-1.4-2-2.5-3.4-3.1l-1-0.4
			l0.9-0.6c1.1-0.7,1.8-1.8,1.8-3.1c0-2-1.8-3.7-4.1-3.7c-2.3,0-4.1,1.7-4.1,3.7c0,1.3,0.7,2.4,1.8,3.1l0.9,0.6l-1,0.4
			c-2.6,1.1-4.6,4-4.6,7.4c0,0.5,0,0.9,0.1,1.4c1.7,2,4.1,3.3,6.7,3.3c1.5,0,2.8-0.4,4-1C70.2,125.7,69.9,125.4,69.7,125.1z"/>
		<path class="st2" d="M77.3,118.1l-1-0.4l0.9-0.6c0.8-0.5,1.3-1.3,1.3-2.2c0-1.4-1.3-2.7-2.9-2.7c-1.7,0-2.9,1.2-2.9,2.7
			c0,0.9,0.5,1.7,1.3,2.2l0.9,0.6l-1,0.4c-0.1,0.1-0.3,0.1-0.4,0.2c-0.2,0.1-0.3,0.2-0.5,0.3c-0.2,0.1-0.3,0.2-0.5,0.3
			c-1.2,1.1-2,2.7-2,4.7c0,0.3,0,0.7,0.1,1c0.2,0.3,0.5,0.5,0.7,0.8c0.1,0.1,0.3,0.2,0.4,0.4c0.2,0.1,0.3,0.2,0.5,0.3
			c1,0.6,2.1,1,3.3,1c2,0,3.7-0.9,5-2.4c0-0.3,0.1-0.7,0.1-1C80.7,121,79.2,118.9,77.3,118.1z"/>
	</g>
	<g>
		<path class="st2" d="M93.2,110.8c0-0.1,0-0.2,0-0.3c0-0.1,0-0.2,0-0.3c-0.1-1.4-0.6-2.6-1.5-3.5l-3.2,3.5l-0.3,0.4l0.1,0.2
			l1.8,4.7C91.8,114.6,93.1,112.8,93.2,110.8z"/>
		<path class="st2" d="M89.3,115.7l-1.8-4.6l-0.1-0.3h-0.5h-5c0.1,1.4,0.7,2.7,1.7,3.7c0.1,0.1,0.3,0.3,0.4,0.4
			c0.9,0.7,2.1,1.1,3.4,1.1C88.1,116,88.7,115.9,89.3,115.7z"/>
		<path class="st2" d="M87.6,104.8c-0.6,0-1.1,0.1-1.6,0.2c-0.2,0.1-0.4,0.1-0.6,0.2c-1.1,0.5-2.1,1.3-2.6,2.4H87
			c0.1,0,0.2,0.1,0.2,0.1v0.2c0,0.1-0.1,0.1-0.2,0.1h-4.5c-0.1,0.2-0.1,0.3-0.2,0.5h4.3c0.1,0,0.2,0.1,0.2,0.1v0.2
			c0,0.1-0.1,0.1-0.2,0.1h-4.4c-0.1,0.3-0.1,0.6-0.1,0.9h5.2h0.3l0.2-0.3l3.3-3.7C90.2,105.3,88.9,104.8,87.6,104.8z"/>
	</g>
</g>
<g id="Layer_4">
	<text transform="matrix(1 0 0 1 142.3332 106.3728)"><tspan x="0" y="0" class="st3 st4 st5">Praktikum</tspan><tspan x="0" y="23.9" class="st3 st4 st5">Rekayasa Perangkat</tspan><tspan x="0" y="47.9" class="st3 st4 st5">Lunak B</tspan></text>
</g>
</svg>
